<svg xmlns="http://www.w3.org/2000/svg" width="1920" height="1080" viewBox="0 0 1920 1080">
  <defs>
    <linearGradient id="bg" x1="0" y1="0" x2="1" y2="1">
      <stop offset="0" stop-color="#FFFFFF"/>
      <stop offset="0.6" stop-color="#FFF7E0"/>
      <stop offset="1" stop-color="#FFFFFF"/>
    </linearGradient>
    <radialGradient id="glow" cx="30%" cy="25%" r="70%">
      <stop offset="0" stop-color="#D4AF37" stop-opacity="0.35"/>
      <stop offset="1" stop-color="#D4AF37" stop-opacity="0"/>
    </radialGradient>
    <linearGradient id="gold" x1="0" y1="0" x2="1" y2="0">
      <stop offset="0" stop-color="#D4AF37"/>
      <stop offset="1" stop-color="#B68C28"/>
    </linearGradient>
  </defs>

  <rect width="1920" height="1080" fill="url(#bg)"/>
  <rect width="1920" height="1080" fill="url(#glow)"/>

  <g opacity="0.55">
    <path d="M120 850 C 360 640, 540 980, 820 760 C 1060 570, 1240 780, 1460 620 C 1650 490, 1800 560, 1900 470" fill="none" stroke="url(#gold)" stroke-width="5"/>
    <path d="M80 920 C 340 700, 560 1050, 860 820 C 1120 620, 1300 850, 1540 690 C 1730 560, 1820 650, 1920 560" fill="none" stroke="#B68C28" stroke-opacity="0.25" stroke-width="4"/>
  </g>

  <g opacity="0.9">
    <circle cx="1480" cy="300" r="190" fill="#D4AF37" fill-opacity="0.08"/>
    <circle cx="1480" cy="300" r="120" fill="#B68C28" fill-opacity="0.08"/>
    <circle cx="1480" cy="300" r="70" fill="#D4AF37" fill-opacity="0.10"/>
  </g>

  <g opacity="0.55">
    <rect x="1160" y="560" width="560" height="360" rx="22" fill="#FFFFFF"/>
    <rect x="1160" y="560" width="560" height="360" rx="22" fill="url(#gold)" fill-opacity="0.08"/>
    <rect x="1200" y="610" width="310" height="12" rx="6" fill="#111827" fill-opacity="0.10"/>
    <rect x="1200" y="640" width="380" height="10" rx="5" fill="#111827" fill-opacity="0.08"/>
    <rect x="1200" y="700" width="220" height="12" rx="6" fill="url(#gold)" fill-opacity="0.30"/>
    <rect x="1200" y="740" width="470" height="10" rx="5" fill="#111827" fill-opacity="0.06"/>
    <rect x="1200" y="765" width="410" height="10" rx="5" fill="#111827" fill-opacity="0.06"/>
    <rect x="1200" y="790" width="450" height="10" rx="5" fill="#111827" fill-opacity="0.06"/>
    <rect x="1200" y="840" width="180" height="44" rx="12" fill="url(#gold)" fill-opacity="0.35"/>
  </g>
</svg>
